PathFileType	4	(X/Y/Z)	C:\Users\WrightLab\Desktop\Jo\P1.2Trial11.trc
DataRate	CameraRate	NumFrames	NumMarkers	Units	OrigDataRate	OrigDataStartFrame	OrigNumFrames
100.00	100.00	       61	19	mm	100.00	204	       814
Frame#	Time	Headset_Front			Headset_Back			Headset_Left			Headset_Right			Left_Shoulder			Right_Shoulder			Sternum			C7			Left Elbow			Right Elbow			Left Wrist			Right Wrist			Left ASIS			Right ASIS			S2			Left Knee			Right Knee			Left Ankle			Right Ankle			
		X1	Y1	Z1	X2	Y2	Z2	X3	Y3	Z3	X4	Y4	Z4	X5	Y5	Z5	X6	Y6	Z6	X7	Y7	Z7	X8	Y8	Z8	X9	Y9	Z9	X10	Y10	Z10	X11	Y11	Z11	X12	Y12	Z12	X13	Y13	Z13	X14	Y14	Z14	X15	Y15	Z15	X16	Y16	Z16	X17	Y17	Z17	X18	Y18	Z18	X19	Y19	Z19	

204	2.030																												-353.31284	1051.66528	1543.14502				-336.21432	951.90039	1296.87354																			-844.77448	151.21606	1860.81360	
205	2.040																												-353.04782	1051.96204	1542.27319				-335.86151	952.19049	1296.38672																			-846.18878	151.86742	1859.94446	
206	2.050																												-352.84741	1051.83679	1541.49023				-335.48746	952.48932	1295.71057																			-847.72284	152.68199	1858.92285	
207	2.060																												-353.09155	1051.90112	1540.54041				-334.81552	953.00775	1295.16821																			-848.67731	153.76569	1856.82227	
208	2.070																												-353.20404	1052.07556	1540.37463				-335.02911	953.62598	1294.58130																			-849.68909	154.89197	1854.57214	
209	2.080																												-353.30780	1051.91577	1539.62268				-334.95663	955.09753	1294.46777																			-851.78925	156.04895	1853.32007	
210	2.090																												-352.07077	1051.32495	1539.31775				-334.85947	955.69849	1293.84094																			-853.10712	157.43596	1851.34875	
211	2.100																												-351.60040	1051.25293	1539.04028				-334.85995	956.26715	1293.16663																			-854.16125	159.38390	1848.11316	
212	2.110																												-351.92227	1051.20203	1538.66663				-335.03625	956.60107	1292.85596																			-855.55060	160.77478	1845.82361	
213	2.120																												-351.23486	1051.04749	1538.79736				-335.60266	957.04572	1292.27148																			-857.17731	162.78456	1842.26917	
214	2.130																												-350.66644	1050.26978	1538.76221				-336.20483	957.56342	1291.95264																			-858.47247	164.53564	1838.82935	
215	2.140																												-350.71393	1049.23071	1538.24060				-337.50696	958.11920	1291.37793																			-859.51630	166.82477	1836.07874	
216	2.150																												-350.61557	1048.13831	1538.47778				-338.44180	958.91595	1291.12427																			-861.38458	170.13243	1832.08264	
217	2.160																												-349.62622	1047.65906	1539.49609				-339.70544	959.43921	1291.31946																			-862.48828	172.38931	1828.89282	
218	2.170																												-349.56348	1047.23083	1540.02576				-340.67392	960.38086	1292.20020																			-863.72943	174.50771	1824.80957	
219	2.180																												-348.74286	1045.81738	1541.20483				-343.04770	961.07135	1293.42114																			-866.20990	176.87593	1819.28650	
220	2.190																												-348.49908	1045.25928	1542.88330				-344.64413	961.42114	1294.70142																			-868.04517	178.27441	1814.16785	
221	2.200																												-348.42065	1044.55713	1545.06714				-347.19455	961.28186	1296.22253																			-871.15533	178.77283	1807.99670	
222	2.210																												-348.13699	1043.45459	1547.76001				-349.59494	961.81995	1298.71875																			-873.87024	179.47153	1799.76831	
223	2.220																												-348.30655	1042.36877	1549.94751				-352.01672	961.69910	1302.15613																			-877.73785	178.83372	1792.92188	
224	2.230																												-348.60913	1040.96948	1552.75977				-355.37964	960.79150	1304.65149																			-881.63745	178.29839	1783.60730	
225	2.240																												-350.17181	1039.62146	1556.50183				-358.85788	959.60272	1308.34229																			-886.34808	176.20638	1775.53601	
226	2.250																												-351.23926	1038.52625	1559.52014				-362.31253	957.86603	1312.52075																			-892.22705	174.40063	1764.28186	
227	2.260																												-353.32431	1036.45105	1562.72498				-366.10196	955.78979	1315.96545																			-899.12195	172.31313	1753.39014	
228	2.270																												-354.31131	1035.10608	1566.48816				-370.06308	953.56915	1320.83264																			-906.77692	169.96581	1741.13953	
229	2.280																												-356.62350	1033.31787	1570.03369				-374.76062	950.51874	1326.09424													-555.98120	439.04080	1659.47864				-914.39526	167.39165	1728.51465	
230	2.290																												-358.56195	1032.16663	1574.46387				-379.63791	945.22125	1331.15442													-557.22314	437.78271	1659.36389				-922.60364	165.11092	1715.90649	
231	2.300																												-361.38431	1030.40906	1578.03723				-384.62039	941.33630	1335.91138													-558.83350	439.02435	1653.05322				-931.68597	162.74689	1702.10303	
232	2.310																												-363.58847	1028.67285	1580.51733				-389.69736	935.21997	1340.73462													-559.77948	437.21982	1651.68066				-940.79785	160.67070	1687.47229	
233	2.320																												-366.77948	1026.68738	1583.73083				-396.02240	930.48096	1346.11279													-560.78668	436.54504	1647.80713				-950.29242	158.76685	1674.03418	
234	2.330																												-369.73224	1024.76733	1586.27039				-402.13187	923.64185	1351.31226													-562.11615	435.35928	1648.16248				-959.93146	157.46461	1659.06384	
235	2.340																												-374.42877	1022.17731	1587.85120				-409.46310	916.60596	1356.85364													-563.51636	435.19208	1642.45251				-969.30206	156.71487	1644.04980	
236	2.350																												-377.99121	1020.67841	1589.48059				-417.01324	908.26178	1360.95728													-564.58612	433.50085	1641.12805				-978.86102	157.46986	1630.06421	
237	2.360																												-383.40024	1017.04181	1589.83044				-424.79843	900.60321	1365.36792													-566.46942	432.98236	1636.16675				-987.90247	158.92325	1617.39807	
238	2.370																												-387.54895	1014.99866	1590.85718				-433.00684	891.84198	1369.58728													-568.50452	431.64087	1634.38574				-996.55133	161.24884	1605.08252	
239	2.380																												-392.78506	1012.17151	1590.37024				-441.73877	882.72858	1373.25208													-569.60510	430.72052	1629.10999				-1004.94165	163.75197	1592.65503	
240	2.390																												-398.34097	1009.38324	1590.15906				-451.12088	873.72583	1377.66138													-573.01874	429.35291	1626.88782				-1012.72583	166.63470	1579.66626	
241	2.400																												-404.47488	1005.99835	1588.79041				-460.50150	863.47369	1380.42737													-575.20728	428.01004	1622.81201				-1019.81018	169.01512	1566.44507	
242	2.410																												-409.89865	1003.80316	1587.49890				-470.31854	855.01495	1383.51147													-577.17822	426.33911	1620.72534				-1027.24243	171.38835	1554.62183	
243	2.420																												-416.05087	1000.88342	1584.68481				-480.06323	847.06232	1386.22046													-580.11023	425.69263	1616.25647				-1034.03772	173.32599	1542.99280	
244	2.430																												-421.98822	998.93860	1582.24255				-489.74146	839.40363	1387.62305													-582.72009	424.44342	1611.14014				-1040.54858	175.28268	1531.73743	
245	2.440																												-427.75903	996.63367	1577.98096				-501.76324	832.04797	1390.01770													-585.62799	423.35391	1608.31799				-1046.40442	177.19063	1520.46716	
246	2.450																												-433.19684	993.53534	1574.15234				-512.14532	826.08167	1390.81885													-587.84943	421.81787	1606.88977				-1051.40613	178.83063	1510.35168	
247	2.460																			-769.35345	1166.93469	1480.70239							-438.21158	992.14862	1570.25415				-519.68018	820.67609	1391.63916													-591.54504	421.37164	1603.36572				-1055.90894	180.34050	1500.61743	
248	2.470																			-773.86401	1165.63501	1475.64551							-445.05145	989.26538	1563.64014				-525.72906	815.45844	1392.61365													-595.03497	418.94974	1601.00342				-1059.70984	180.74165	1491.57922	
249	2.480																			-778.69556	1164.46191	1470.42590							-448.81757	989.00934	1559.36658				-531.53033	810.91937	1392.12830													-598.00543	419.17978	1595.36780				-1063.08533	180.43474	1483.85620	
250	2.490																			-783.69147	1163.33667	1465.21887							-455.33362	987.10144	1553.45386				-536.77142	807.36273	1390.82996													-601.16003	417.68039	1593.04602				-1066.14429	179.06187	1477.14014	
251	2.500																			-788.85278	1162.12952	1459.80798							-460.63422	986.04211	1548.83020				-541.42950	804.18817	1387.36072													-604.06458	416.98346	1591.82312				-1068.27393	176.64915	1470.40051	
252	2.510																			-794.39740	1161.25903	1454.41882							-466.70856	984.42438	1544.18176				-546.46411	800.41962	1384.73755													-608.16986	417.10663	1586.68042				-1070.17114	173.49646	1465.12964	
253	2.520																			-800.04443	1160.40552	1448.82617							-472.66251	983.04901	1539.09912	-967.30408	487.51257	1481.96082	-551.22424	797.71124	1380.29602													-611.99432	417.00684	1582.24023				-1070.94653	169.60339	1461.12402	
254	2.530																			-805.69958	1159.56824	1443.24377							-478.12607	983.20129	1533.80188	-971.54968	484.33716	1476.28149	-556.61536	794.57037	1375.01001													-615.51862	415.78741	1581.37073				-1071.05579	165.50630	1457.09485	
255	2.540																			-811.77374	1158.96655	1437.38354							-484.27521	982.62738	1528.14941	-975.62598	482.99591	1465.39148	-559.51794	791.83197	1368.64612													-619.59247	416.23810	1577.43298				-1071.65454	161.06299	1454.46667	
256	2.550																			-818.05090	1158.56360	1431.52332							-490.23880	982.06024	1521.27832	-980.63324	481.03979	1460.96558	-563.91681	789.63184	1363.93274													-626.34772	417.31888	1570.92957				-1073.32458	158.48221	1450.76636	
257	2.560																			-824.32324	1158.21399	1425.45569							-496.55524	981.98138	1515.66101	-985.56720	477.00766	1457.08826	-568.39502	788.10181	1357.93091													-631.42883	417.22693	1567.83777				-1075.12341	156.71858	1445.71802	
258	2.570																			-831.04248	1158.19141	1419.30310							-502.71713	981.88110	1509.68616	-990.60980	477.51102	1447.72107	-572.62140	786.58716	1350.85034													-636.15137	417.63159	1564.27100				-1078.04846	155.69199	1440.21509	
259	2.580							-911.50812	1435.65894	1441.88232				-997.51367	1244.36816	1585.12097				-837.45459	1158.17078	1413.02844							-509.47412	981.92426	1503.66406	-996.35260	474.38931	1443.51184	-576.68982	785.67133	1345.55811													-641.10767	417.88153	1560.82153				-1081.14807	153.64627	1435.15698	
260	2.590							-917.12811	1436.73315	1435.40674				-1004.67932	1244.11267	1578.80811				-844.42615	1158.66272	1406.64758							-515.77588	982.65967	1497.18079	-1002.44604	476.20596	1434.10706	-580.09613	784.84979	1339.55896													-647.98236	419.83011	1552.34314				-1084.38428	151.24869	1431.62927	
261	2.600							-923.37689	1437.96228	1428.69580				-1011.96655	1243.58716	1571.95178				-851.21185	1159.28125	1400.20190							-522.15753	983.14130	1489.65503	-1009.95715	474.98193	1432.17151	-583.83252	784.12738	1333.20984													-653.86542	420.68106	1548.04053				-1088.14063	148.64540	1429.23145	
262	2.610							-928.95819	1439.06177	1421.85571				-1019.25360	1243.65381	1565.17078				-858.09070	1160.13184	1393.68970							-528.93457	983.60895	1483.26526	-1017.13806	476.73865	1425.20789	-587.60089	784.36975	1327.52454													-660.74890	421.53268	1541.46692				-1091.33936	145.93184	1426.21228	
263	2.620							-935.85321	1440.98096	1414.83081				-1026.48523	1244.38062	1557.87244				-864.92743	1161.11548	1387.13391							-535.85486	985.14526	1478.52673	-1024.04346	478.91269	1416.63428	-590.88330	783.60632	1320.72632													-667.49408	423.20160	1537.93030				-1094.16748	142.60040	1424.38306	
264	2.630							-941.03912	1441.90698	1407.65381				-1034.03613	1244.95361	1551.16211				-871.74622	1162.20337	1380.54590							-543.11292	986.50342	1471.86938	-1032.35852	480.68503	1410.01563	-594.43903	784.73114	1313.46191													-674.49695	424.62888	1534.03162				-1097.19043	139.65694	1423.10010	
